<svg version="1.1" id="Layer_1" xmlns="http://www.w3.org/2000/svg" xmlns:xlink="http://www.w3.org/1999/xlink" x="0px" y="0px"
	 width="100%" viewBox="0 0 225 225" enable-background="new 0 0 225 225" xml:space="preserve">
<path fill="#073944" opacity="1.000000" stroke="none" 
	d="
M115.000000,226.000000 
	C76.666672,226.000000 38.833340,226.000000 1.000005,226.000000 
	C1.000003,151.000000 1.000003,76.000015 1.000002,1.000015 
	C75.999992,1.000010 150.999985,1.000010 225.999969,1.000005 
	C225.999985,75.999985 225.999985,150.999969 226.000000,225.999969 
	C189.166672,226.000000 152.333328,226.000000 115.000000,226.000000 
M118.334595,151.570709 
	C117.276070,147.369888 116.217552,143.169052 115.156944,138.732056 
	C115.155045,138.496399 115.137405,138.261658 114.931717,137.358719 
	C114.957451,136.902390 114.983185,136.446060 115.023384,135.745285 
	C115.037056,135.501190 115.032570,135.257126 114.810394,134.091385 
	C114.814354,123.091537 114.818314,112.091682 115.143478,100.424866 
	C115.410324,99.734261 115.677170,99.043655 116.421364,97.835594 
	C119.787674,97.210632 123.146561,96.098595 126.521606,96.047234 
	C139.342056,95.852112 146.190384,90.567833 149.519257,77.588593 
	C143.329163,75.543037 137.127365,74.080513 130.546082,75.753883 
	C121.549866,78.041283 117.383919,85.200768 113.594193,93.402588 
	C111.743652,87.894531 110.256088,83.161125 108.549606,78.508003 
	C107.601616,75.923096 105.988228,74.063721 102.859909,75.789597 
	C95.313972,79.952690 87.779297,84.136215 79.785294,88.563362 
	C85.576637,93.626419 88.748795,99.641747 88.930344,107.494629 
	C88.930344,107.494629 89.026825,107.981720 88.856735,108.907997 
	C88.410072,123.342331 90.353249,137.986908 85.592758,152.249237 
	C86.714180,152.191422 87.835602,152.133606 89.888115,151.917313 
	C98.273422,151.970520 106.658730,152.023727 115.513718,152.271317 
	C116.322723,152.207367 117.131729,152.143417 118.334595,151.570709 
z"/>
<path fill="#18E79E" opacity="1.000000" stroke="none" 
	d="
M114.822273,101.091835 
	C114.818314,112.091682 114.814354,123.091537 114.860229,134.796249 
	C114.910057,135.501114 115.008919,135.989731 115.008919,135.989731 
	C114.983185,136.446060 114.957451,136.902390 114.985718,137.931000 
	C115.039726,138.503265 115.159035,138.968231 115.159035,138.968231 
	C116.217552,143.169052 117.276070,147.369888 117.777664,151.773529 
	C116.495163,152.009872 115.769600,152.043411 115.044037,152.076935 
	C106.658730,152.023727 98.273422,151.970520 89.036011,151.937866 
	C87.144669,151.970749 86.105431,151.983093 85.066185,151.995422 
	C90.353249,137.986908 88.410072,123.342331 88.952301,108.323441 
	C89.065758,107.495872 89.062271,107.252831 89.037399,107.009750 
	C88.748795,99.641747 85.576637,93.626419 79.785294,88.563362 
	C87.779297,84.136215 95.313972,79.952690 102.859909,75.789597 
	C105.988228,74.063721 107.601616,75.923096 108.549606,78.508003 
	C110.256088,83.161125 111.743652,87.894531 113.594193,93.402588 
	C117.383919,85.200768 121.549866,78.041283 130.546082,75.753883 
	C137.127365,74.080513 143.329163,75.543037 149.519257,77.588593 
	C146.190384,90.567833 139.342056,95.852112 126.521606,96.047234 
	C123.146561,96.098595 119.787674,97.210632 115.871574,98.341675 
	C115.155281,99.595779 114.988777,100.343811 114.822273,101.091835 
M89.499954,134.474289 
	C89.499954,134.474289 89.506927,134.510513 89.499954,134.474289 
z"/>
<path fill="#002F36" opacity="1.000000" stroke="none" 
	d="
M85.329468,152.122330 
	C86.105431,151.983093 87.144669,151.970749 88.570465,152.017090 
	C87.835602,152.133606 86.714180,152.191422 85.329468,152.122330 
z"/>
<path fill="#002F36" opacity="1.000000" stroke="none" 
	d="
M115.278877,152.174133 
	C115.769600,152.043411 116.495163,152.009872 117.580734,152.027893 
	C117.131729,152.143417 116.322723,152.207367 115.278877,152.174133 
z"/>
<path fill="#022E3D" opacity="1.000000" stroke="none" 
	d="
M114.982880,100.758347 
	C114.988777,100.343811 115.155281,99.595779 115.632904,98.600403 
	C115.677170,99.043655 115.410324,99.734261 114.982880,100.758347 
z"/>
<path fill="#1EEFA8" opacity="1.000000" stroke="none" 
	d="
M88.983871,107.252190 
	C89.062271,107.252831 89.065758,107.495872 89.037338,107.860298 
	C89.026825,107.981720 88.930344,107.494629 88.983871,107.252190 
z"/>
<path fill="#022E3D" opacity="1.000000" stroke="none" 
	d="
M115.016151,135.867508 
	C115.008919,135.989731 114.910057,135.501114 114.959991,135.257111 
	C115.032570,135.257126 115.037056,135.501190 115.016151,135.867508 
z"/>
<path fill="#022E3D" opacity="1.000000" stroke="none" 
	d="
M115.157990,138.850143 
	C115.159035,138.968231 115.039726,138.503265 115.071869,138.265533 
	C115.137405,138.261658 115.155045,138.496399 115.157990,138.850143 
z"/>
<path fill="#1EEFA8" opacity="1.000000" stroke="none" 
	d="
M89.503441,134.492401 
	C89.506927,134.510513 89.499954,134.474289 89.503441,134.492401 
z"/>
</svg>